<?xml version="1.0" encoding="utf-8"?>
<!-- Generator: Adobe Illustrator 23.1.1, SVG Export Plug-In . SVG Version: 6.00 Build 0)  -->
<svg version="1.1" id="Capa_1" xmlns="http://www.w3.org/2000/svg" xmlns:xlink="http://www.w3.org/1999/xlink" x="0px" y="0px"
	 viewBox="0 0 595.3 595.3" style="enable-background:new 0 0 595.3 595.3;" xml:space="preserve">
<style type="text/css">
	.st0{fill:none;}
	.st1{font-family:'Rubik-Bold';}
	.st2{font-size:60px;}
	.st3{letter-spacing:-1;}
	.st4{fill:#FFFFFF;}
</style>
<rect x="77" y="219.3" class="st0" width="356.8" height="144.6"/>
<text transform="matrix(1 0 0 1 76.9639 261.8955)"><tspan x="0" y="0" class="st1 st2">c</tspan><tspan x="34.7" y="0" class="st1 st2 st3">a</tspan><tspan x="68.5" y="0" class="st1 st2">t_a</tspan><tspan x="173.8" y="0" class="st1 st2 st3">p</tspan><tspan x="210.1" y="0" class="st1 st2">p</tspan></text>
<g>
	<path d="M138.3,528.7c-2.8-2.4-4.3-5.8-4.5-10.1l-0.1-2.4l0.1-2.5c0.2-4.3,1.7-7.7,4.5-10.1c2.8-2.4,6.5-3.7,11.1-3.7
		c3.5,0,6.4,0.6,8.8,1.9c2.4,1.2,4.1,2.7,5.3,4.4c1.2,1.7,1.8,3.2,1.9,4.6c0,0.4-0.1,0.8-0.4,1.1c-0.3,0.3-0.7,0.5-1.1,0.5h-8
		c-0.4,0-0.8-0.1-1-0.3c-0.2-0.2-0.5-0.5-0.7-1c-0.4-1.1-1-1.9-1.7-2.5c-0.7-0.5-1.6-0.8-2.7-0.8c-3.1,0-4.7,2-4.8,6.1l-0.1,2.3
		l0.1,2c0,2.1,0.5,3.6,1.3,4.6c0.8,1,2,1.5,3.5,1.5c1.2,0,2.1-0.2,2.7-0.8c0.7-0.5,1.2-1.3,1.6-2.5c0.2-0.4,0.4-0.8,0.7-1
		c0.2-0.2,0.6-0.3,1-0.3h8c0.4,0,0.8,0.1,1.1,0.4c0.3,0.3,0.5,0.6,0.5,1c0,1.2-0.6,2.7-1.6,4.5c-1.1,1.7-2.9,3.3-5.2,4.6
		c-2.4,1.3-5.4,2-9,2C144.8,532.4,141.1,531.2,138.3,528.7z"/>
	<path d="M173.2,531.1c-1.7-0.8-3.1-2-4.1-3.4c-1-1.4-1.5-3-1.5-4.7c0-2.7,1.1-4.9,3.4-6.6c2.3-1.7,5.4-2.9,9.3-3.5l7.4-1.1V511
		c0-1.5-0.3-2.6-0.9-3.2c-0.6-0.7-1.6-1-3.1-1c-0.8,0-1.5,0.1-2,0.4c-0.5,0.3-1.2,0.7-1.8,1.3c-0.5,0.4-1,0.8-1.4,1
		c-0.2,0.3-0.4,0.4-0.6,0.4h-7c-0.4,0-0.7-0.1-1-0.4c-0.3-0.3-0.4-0.6-0.3-0.9c0-1.1,0.6-2.3,1.6-3.6c1-1.3,2.6-2.5,4.7-3.4
		c2.1-1,4.7-1.4,7.9-1.4c5,0,8.6,1.1,11,3.3c2.4,2.2,3.6,5.1,3.6,8.8v18.2c0,0.4-0.1,0.8-0.4,1c-0.3,0.3-0.6,0.5-1.1,0.5h-7.4
		c-0.4,0-0.8-0.1-1.1-0.5c-0.3-0.3-0.4-0.6-0.4-1v-2.1c-0.9,1.2-2.1,2.2-3.7,3c-1.6,0.8-3.4,1.2-5.6,1.2
		C176.9,532.4,174.9,532,173.2,531.1z M186.3,523.6c1.1-1.2,1.6-2.8,1.6-5v-0.7l-5,0.8c-3.4,0.6-5,1.8-5,3.6c0,0.9,0.4,1.7,1.2,2.2
		c0.8,0.6,1.7,0.8,2.9,0.8C183.7,525.3,185.2,524.7,186.3,523.6z"/>
	<path d="M206.8,519.8v-11.1H202c-0.4,0-0.8-0.1-1-0.5c-0.3-0.3-0.5-0.6-0.5-1v-5.2c0-0.4,0.2-0.8,0.5-1.1c0.3-0.3,0.6-0.4,1-0.4
		h4.7v-9.9c0-0.4,0.1-0.8,0.4-1.1c0.3-0.3,0.6-0.4,1.1-0.4h7.4c0.4,0,0.8,0.1,1.1,0.4c0.3,0.3,0.4,0.6,0.4,1.1v9.9h7.5
		c0.4,0,0.8,0.1,1.1,0.4c0.3,0.3,0.5,0.6,0.5,1.1v5.2c0,0.4-0.1,0.8-0.5,1.1c-0.3,0.3-0.7,0.4-1.1,0.4h-7.5v10.2
		c0,1.4,0.3,2.5,0.8,3.2c0.5,0.7,1.4,1.1,2.5,1.1h4.7c0.4,0,0.8,0.1,1.1,0.5c0.3,0.3,0.4,0.7,0.4,1.1v5.5c0,0.4-0.1,0.8-0.4,1
		c-0.3,0.3-0.6,0.5-1.1,0.5h-5.7C211,531.8,206.8,527.8,206.8,519.8z"/>
	<path d="M230.3,535.8c-0.3-0.3-0.4-0.7-0.4-1.1v-5.9c0-0.4,0.1-0.8,0.4-1.1c0.3-0.3,0.7-0.4,1.1-0.4h35.7c0.4,0,0.8,0.1,1.1,0.4
		c0.3,0.3,0.4,0.6,0.4,1.1v5.9c0,0.4-0.1,0.8-0.4,1.1c-0.3,0.3-0.6,0.5-1.1,0.5h-35.7C231,536.3,230.6,536.1,230.3,535.8z"/>
	<path d="M277.4,531.1c-1.7-0.8-3.1-2-4.1-3.4c-1-1.4-1.5-3-1.5-4.7c0-2.7,1.1-4.9,3.4-6.6c2.3-1.7,5.4-2.9,9.3-3.5l7.4-1.1V511
		c0-1.5-0.3-2.6-0.9-3.2c-0.6-0.7-1.6-1-3.1-1c-0.8,0-1.5,0.1-2,0.4c-0.5,0.3-1.2,0.7-1.8,1.3c-0.5,0.4-1,0.8-1.4,1
		c-0.2,0.3-0.4,0.4-0.6,0.4h-7c-0.4,0-0.7-0.1-1-0.4c-0.3-0.3-0.4-0.6-0.3-0.9c0-1.1,0.6-2.3,1.6-3.6c1-1.3,2.6-2.5,4.7-3.4
		c2.1-1,4.7-1.4,7.9-1.4c5,0,8.6,1.1,11,3.3c2.4,2.2,3.6,5.1,3.6,8.8v18.2c0,0.4-0.1,0.8-0.4,1c-0.3,0.3-0.6,0.5-1.1,0.5h-7.4
		c-0.4,0-0.8-0.1-1.1-0.5c-0.3-0.3-0.4-0.6-0.4-1v-2.1c-0.9,1.2-2.1,2.2-3.7,3c-1.6,0.8-3.4,1.2-5.6,1.2
		C281.1,532.4,279.1,532,277.4,531.1z M290.5,523.6c1.1-1.2,1.6-2.8,1.6-5v-0.7l-5,0.8c-3.4,0.6-5,1.8-5,3.6c0,0.9,0.4,1.7,1.2,2.2
		c0.8,0.6,1.7,0.8,2.9,0.8C288,525.3,289.4,524.7,290.5,523.6z"/>
	<path d="M308.9,542.8c-0.3-0.3-0.5-0.6-0.5-1.1v-39.6c0-0.4,0.1-0.8,0.5-1.1c0.3-0.3,0.7-0.4,1.1-0.4h7.1c0.4,0,0.8,0.1,1.1,0.4
		c0.3,0.3,0.4,0.6,0.4,1.1v2.2c2.2-2.8,5.3-4.3,9.3-4.3c3.9,0,6.9,1.2,9.1,3.6c2.2,2.4,3.4,5.9,3.6,10.4c0,0.5,0.1,1.3,0.1,2.2
		s0,1.7-0.1,2.3c-0.2,4.3-1.4,7.7-3.6,10.2c-2.2,2.5-5.3,3.7-9.1,3.7c-3.9,0-6.8-1.3-8.7-4v13.3c0,0.4-0.1,0.8-0.4,1.1
		c-0.3,0.3-0.6,0.4-1.1,0.4H310C309.6,543.2,309.2,543,308.9,542.8z M328.3,522.4c0.8-1.1,1.2-2.5,1.4-4.4c0-0.4,0.1-1,0.1-1.9
		c0-0.8,0-1.5-0.1-1.9c-0.1-1.9-0.6-3.3-1.4-4.4c-0.8-1.1-2.1-1.6-3.9-1.6c-1.7,0-3,0.6-3.8,1.6c-0.8,1.1-1.3,2.5-1.4,4.2
		c0,0.5-0.1,1.3-0.1,2.3c0,1,0,1.7,0.1,2.2c0.1,1.6,0.5,2.9,1.4,3.9c0.9,1,2.1,1.5,3.8,1.5C326.3,524,327.6,523.5,328.3,522.4z"/>
	<path d="M345.1,542.8c-0.3-0.3-0.5-0.6-0.5-1.1v-39.6c0-0.4,0.1-0.8,0.5-1.1c0.3-0.3,0.7-0.4,1.1-0.4h7.1c0.4,0,0.8,0.1,1.1,0.4
		c0.3,0.3,0.4,0.6,0.4,1.1v2.2c2.2-2.8,5.3-4.3,9.3-4.3c3.9,0,6.9,1.2,9.1,3.6c2.2,2.4,3.4,5.9,3.6,10.4c0,0.5,0.1,1.3,0.1,2.2
		s0,1.7-0.1,2.3c-0.2,4.3-1.4,7.7-3.6,10.2c-2.2,2.5-5.3,3.7-9.1,3.7c-3.9,0-6.8-1.3-8.7-4v13.3c0,0.4-0.1,0.8-0.4,1.1
		c-0.3,0.3-0.6,0.4-1.1,0.4h-7.7C345.8,543.2,345.4,543,345.1,542.8z M364.6,522.4c0.8-1.1,1.2-2.5,1.4-4.4c0-0.4,0.1-1,0.1-1.9
		c0-0.8,0-1.5-0.1-1.9c-0.1-1.9-0.6-3.3-1.4-4.4c-0.8-1.1-2.1-1.6-3.9-1.6c-1.7,0-3,0.6-3.8,1.6c-0.8,1.1-1.3,2.5-1.4,4.2
		c0,0.5-0.1,1.3-0.1,2.3c0,1,0,1.7,0.1,2.2c0.1,1.6,0.5,2.9,1.4,3.9c0.9,1,2.1,1.5,3.8,1.5C362.5,524,363.8,523.5,364.6,522.4z"/>
</g>
<rect x="77" y="57.8" class="st0" width="356.8" height="144.6"/>
<text transform="matrix(1 0 0 1 76.9639 100.4066)"><tspan x="0" y="0" class="st1 st2">C</tspan><tspan x="41.5" y="0" class="st1 st2 st3">a</tspan><tspan x="75.2" y="0" class="st1 st2">tA</tspan><tspan x="145.1" y="0" class="st1 st2 st3">p</tspan><tspan x="181.3" y="0" class="st1 st2">p</tspan></text>
<path d="M97.5,500.6H83.4l-15.8-19.9c-0.7-0.9-2.2-0.4-2.2,0.8v46.3c0,0.7,0.3,1.4,0.8,2l12.7,12.7c0.5,0.5,1.2,0.8,2,0.8h19
	c0.7,0,1.4-0.3,2-0.8l12.7-12.7c0.5-0.5,0.8-1.2,0.8-2v-46.3c0-1.2-1.5-1.7-2.2-0.8L97.5,500.6z"/>
</svg>
