<?xml version="1.0" encoding="utf-8"?>
<!-- Generator: Adobe Illustrator 23.1.1, SVG Export Plug-In . SVG Version: 6.00 Build 0)  -->
<svg version="1.1" id="Capa_1" xmlns="http://www.w3.org/2000/svg" xmlns:xlink="http://www.w3.org/1999/xlink" x="0px" y="0px"
	 viewBox="0 0 152.2 33.1" style="enable-background:new 0 0 152.2 33.1;" xml:space="preserve">
<style type="text/css">
	.st0{fill:#FFFFFF;}
</style>
<g>
	<g>
		<path class="st0" d="M36.2,24.4c-1.4-1.2-2.1-2.8-2.2-4.9l0-1.2l0-1.2c0.1-2.1,0.8-3.7,2.2-4.9c1.4-1.2,3.1-1.8,5.3-1.8
			c1.7,0,3.1,0.3,4.2,0.9c1.1,0.6,2,1.3,2.5,2.1c0.6,0.8,0.9,1.6,0.9,2.2c0,0.2,0,0.4-0.2,0.5c-0.2,0.1-0.3,0.2-0.5,0.2h-3.9
			c-0.2,0-0.4,0-0.5-0.1c-0.1-0.1-0.2-0.2-0.3-0.5c-0.2-0.5-0.5-0.9-0.8-1.2c-0.3-0.3-0.8-0.4-1.3-0.4c-1.5,0-2.3,1-2.3,2.9l0,1.1
			l0,1c0,1,0.2,1.7,0.6,2.2c0.4,0.5,1,0.7,1.7,0.7c0.6,0,1-0.1,1.3-0.4c0.3-0.2,0.6-0.6,0.8-1.2c0.1-0.2,0.2-0.4,0.3-0.5
			c0.1-0.1,0.3-0.1,0.5-0.1h3.9c0.2,0,0.4,0.1,0.5,0.2c0.2,0.1,0.2,0.3,0.2,0.5c0,0.6-0.3,1.3-0.8,2.2c-0.5,0.8-1.4,1.6-2.5,2.2
			c-1.2,0.6-2.6,1-4.3,1C39.3,26.1,37.6,25.5,36.2,24.4z"/>
		<path class="st0" d="M53,25.5c-0.8-0.4-1.5-0.9-2-1.6c-0.5-0.7-0.7-1.5-0.7-2.3c0-1.3,0.5-2.4,1.6-3.2c1.1-0.8,2.6-1.4,4.5-1.7
			l3.6-0.5v-0.3c0-0.7-0.1-1.2-0.4-1.6c-0.3-0.3-0.8-0.5-1.5-0.5c-0.4,0-0.7,0.1-1,0.2c-0.3,0.1-0.6,0.3-0.9,0.6
			c-0.3,0.2-0.5,0.4-0.7,0.5c-0.1,0.1-0.2,0.2-0.3,0.2H52c-0.2,0-0.4-0.1-0.5-0.2c-0.1-0.1-0.2-0.3-0.2-0.4c0-0.5,0.3-1.1,0.8-1.7
			c0.5-0.6,1.3-1.2,2.3-1.7c1-0.5,2.3-0.7,3.8-0.7c2.4,0,4.2,0.5,5.3,1.6c1.2,1,1.7,2.5,1.7,4.3v8.8c0,0.2-0.1,0.4-0.2,0.5
			c-0.1,0.1-0.3,0.2-0.5,0.2H61c-0.2,0-0.4-0.1-0.5-0.2c-0.1-0.1-0.2-0.3-0.2-0.5v-1c-0.4,0.6-1,1.1-1.8,1.5
			c-0.8,0.4-1.6,0.6-2.7,0.6C54.8,26.1,53.8,25.9,53,25.5z M59.3,21.9c0.5-0.6,0.8-1.4,0.8-2.4v-0.3l-2.4,0.4
			c-1.6,0.3-2.4,0.9-2.4,1.7c0,0.4,0.2,0.8,0.6,1.1c0.4,0.3,0.8,0.4,1.4,0.4C58.1,22.7,58.8,22.4,59.3,21.9z"/>
		<path class="st0" d="M69.2,20.1v-5.3h-2.3c-0.2,0-0.4-0.1-0.5-0.2c-0.1-0.1-0.2-0.3-0.2-0.5v-2.5c0-0.2,0.1-0.4,0.2-0.5
			c0.1-0.1,0.3-0.2,0.5-0.2h2.3V6c0-0.2,0.1-0.4,0.2-0.5c0.1-0.1,0.3-0.2,0.5-0.2h3.6c0.2,0,0.4,0.1,0.5,0.2
			c0.1,0.1,0.2,0.3,0.2,0.5v4.8h3.6c0.2,0,0.4,0.1,0.5,0.2c0.1,0.1,0.2,0.3,0.2,0.5V14c0,0.2-0.1,0.4-0.2,0.5
			c-0.1,0.1-0.3,0.2-0.5,0.2h-3.6v4.9c0,0.7,0.1,1.2,0.4,1.5c0.2,0.3,0.7,0.5,1.2,0.5H78c0.2,0,0.4,0.1,0.5,0.2
			c0.1,0.1,0.2,0.3,0.2,0.5v2.7c0,0.2-0.1,0.4-0.2,0.5c-0.1,0.1-0.3,0.2-0.5,0.2h-2.7C71.2,25.8,69.2,23.9,69.2,20.1z"/>
		<path class="st0" d="M80.5,27.8c-0.1-0.1-0.2-0.3-0.2-0.5v-2.9c0-0.2,0.1-0.4,0.2-0.5c0.1-0.1,0.3-0.2,0.5-0.2h17.2
			c0.2,0,0.4,0.1,0.5,0.2c0.1,0.1,0.2,0.3,0.2,0.5v2.9c0,0.2-0.1,0.4-0.2,0.5c-0.1,0.1-0.3,0.2-0.5,0.2H81
			C80.8,28,80.6,27.9,80.5,27.8z"/>
		<path class="st0" d="M103.2,25.5c-0.8-0.4-1.5-0.9-2-1.6c-0.5-0.7-0.7-1.5-0.7-2.3c0-1.3,0.5-2.4,1.6-3.2c1.1-0.8,2.6-1.4,4.5-1.7
			l3.6-0.5v-0.3c0-0.7-0.1-1.2-0.4-1.6c-0.3-0.3-0.8-0.5-1.5-0.5c-0.4,0-0.7,0.1-1,0.2c-0.3,0.1-0.6,0.3-0.9,0.6
			c-0.3,0.2-0.5,0.4-0.7,0.5c-0.1,0.1-0.2,0.2-0.3,0.2h-3.4c-0.2,0-0.4-0.1-0.5-0.2c-0.1-0.1-0.2-0.3-0.2-0.4c0-0.5,0.3-1.1,0.8-1.7
			c0.5-0.6,1.3-1.2,2.3-1.7c1-0.5,2.3-0.7,3.8-0.7c2.4,0,4.2,0.5,5.3,1.6c1.2,1,1.7,2.5,1.7,4.3v8.8c0,0.2-0.1,0.4-0.2,0.5
			c-0.1,0.1-0.3,0.2-0.5,0.2h-3.6c-0.2,0-0.4-0.1-0.5-0.2c-0.1-0.1-0.2-0.3-0.2-0.5v-1c-0.4,0.6-1,1.1-1.8,1.5
			c-0.8,0.4-1.6,0.6-2.7,0.6C104.9,26.1,104,25.9,103.2,25.5z M109.5,21.9c0.5-0.6,0.8-1.4,0.8-2.4v-0.3l-2.4,0.4
			c-1.6,0.3-2.4,0.9-2.4,1.7c0,0.4,0.2,0.8,0.6,1.1c0.4,0.3,0.8,0.4,1.4,0.4C108.2,22.7,108.9,22.4,109.5,21.9z"/>
		<path class="st0" d="M118.3,31.1c-0.1-0.1-0.2-0.3-0.2-0.5V11.5c0-0.2,0.1-0.4,0.2-0.5c0.1-0.1,0.3-0.2,0.5-0.2h3.4
			c0.2,0,0.4,0.1,0.5,0.2c0.1,0.1,0.2,0.3,0.2,0.5v1c1-1.4,2.5-2.1,4.5-2.1c1.9,0,3.3,0.6,4.4,1.7c1.1,1.2,1.6,2.8,1.7,5
			c0,0.3,0,0.6,0,1.1s0,0.8,0,1.1c-0.1,2.1-0.7,3.7-1.7,4.9c-1.1,1.2-2.5,1.8-4.4,1.8c-1.9,0-3.3-0.6-4.2-1.9v6.4
			c0,0.2-0.1,0.4-0.2,0.5c-0.1,0.1-0.3,0.2-0.5,0.2h-3.7C118.7,31.3,118.5,31.3,118.3,31.1z M127.7,21.3c0.4-0.5,0.6-1.2,0.6-2.1
			c0-0.2,0-0.5,0-0.9c0-0.4,0-0.7,0-0.9c-0.1-0.9-0.3-1.6-0.6-2.1c-0.4-0.5-1-0.8-1.9-0.8c-0.8,0-1.4,0.3-1.8,0.8
			c-0.4,0.5-0.6,1.2-0.7,2c0,0.3,0,0.6,0,1.1c0,0.5,0,0.8,0,1.1c0,0.8,0.3,1.4,0.7,1.9c0.4,0.5,1,0.7,1.8,0.7
			C126.7,22.1,127.3,21.9,127.7,21.3z"/>
		<path class="st0" d="M135.8,31.1c-0.1-0.1-0.2-0.3-0.2-0.5V11.5c0-0.2,0.1-0.4,0.2-0.5c0.1-0.1,0.3-0.2,0.5-0.2h3.4
			c0.2,0,0.4,0.1,0.5,0.2c0.1,0.1,0.2,0.3,0.2,0.5v1c1-1.4,2.5-2.1,4.5-2.1c1.9,0,3.3,0.6,4.4,1.7c1.1,1.2,1.6,2.8,1.7,5
			c0,0.3,0,0.6,0,1.1s0,0.8,0,1.1c-0.1,2.1-0.7,3.7-1.7,4.9c-1.1,1.2-2.5,1.8-4.4,1.8c-1.9,0-3.3-0.6-4.2-1.9v6.4
			c0,0.2-0.1,0.4-0.2,0.5c-0.1,0.1-0.3,0.2-0.5,0.2h-3.7C136.1,31.3,135.9,31.3,135.8,31.1z M145.1,21.3c0.4-0.5,0.6-1.2,0.6-2.1
			c0-0.2,0-0.5,0-0.9c0-0.4,0-0.7,0-0.9c-0.1-0.9-0.3-1.6-0.6-2.1c-0.4-0.5-1-0.8-1.9-0.8c-0.8,0-1.4,0.3-1.8,0.8
			c-0.4,0.5-0.6,1.2-0.7,2c0,0.3,0,0.6,0,1.1c0,0.5,0,0.8,0,1.1c0,0.8,0.3,1.4,0.7,1.9c0.4,0.5,1,0.7,1.8,0.7
			C144.1,22.1,144.8,21.9,145.1,21.3z"/>
	</g>
	<path class="st0" d="M16.5,10.8H9.7L2.1,1.2c-0.3-0.4-1-0.2-1,0.4v22.3c0,0.4,0.1,0.7,0.4,0.9l6.1,6.1c0.3,0.3,0.6,0.4,0.9,0.4h9.2
		c0.4,0,0.7-0.1,0.9-0.4l6.1-6.1c0.3-0.3,0.4-0.6,0.4-0.9V1.6c0-0.6-0.7-0.8-1-0.4L16.5,10.8z"/>
</g>
</svg>
